<svg xmlns="http://www.w3.org/2000/svg" height="350" width="600" style="-webkit-tap-highlight-color:rgba(0,0,0,0);user-select:none;vertical-align:middle;position:relative;background-color:#fff" overflow="hidden" cursor="default"><defs><clipPath id="a"><path d="M34 54h541.5v247H34z"/></clipPath></defs><g class="raphael-group-590-parentgroup"><g class="raphael-group-591-background"><rect x="1" y="1" width="598" height="348" fill-opacity=".5" fill="#fff" rx="0" ry="0"/><rect x=".5" y=".5" width="599" height="349" stroke="#767575" stroke-opacity=".5" fill="none" rx="0" ry="0"/></g><rect x="34" y="55" width="541.5" height="245" rx="0" ry="0" fill="none" class="raphael-group-592-canvas"/><g class="raphael-group-593-axisbottom"><g class="raphael-group-620-dataset-Line-group"><g class="raphael-group-652-dataset-axis-lines" clip-path="url('#a')" stroke="#717170" stroke-opacity=".4" fill="none" stroke-linecap="round" shape-rendering="crispedges"><path d="M34 300.5h541.5M34 55.5h541.5"/></g></g><g class="raphael-group-623-dataset-Name-group"><text font-family="verdana,sans" font-size="11" font-weight="700" font-style="italic" fill="#4d4d4d" x="304.75" y="327.5" text-anchor="middle" class="raphael-group-638-dataset-axis-name"><tspan dy="4.5" x="304.75">Weeks</tspan></text><text font-family="verdana,sans" font-size="11" font-weight="700" font-style="italic" fill="#4d4d4d" x="22.5" y="177.5" transform="rotate(-90 22.5 177.5)" text-anchor="middle" class="raphael-group-657-dataset-axis-name"><tspan dy="4.5" x="22.5">Tickets</tspan></text></g><g class="raphael-group-626-dataset-Label-group"><g class="raphael-group-628-dataset-axis" font-family="verdana,sans" font-size="10" font-weight="400" fill="#555" text-anchor="middle" cursor="pointer"><text x="37.5" y="304"><tspan dy="10" x="37.5">&apos;16 W#39</tspan></text><text x="143.9" y="304"><tspan dy="10" x="143.9">&apos;16 W#40</tspan></text><text x="250.3" y="304"><tspan dy="10" x="250.3">&apos;16 W#41</tspan></text><text x="356.7" y="304"><tspan dy="10" x="356.7">&apos;16 W#42</tspan></text><text x="463.1" y="304"><tspan dy="10" x="463.1">&apos;16 W#43</tspan></text><text x="569.5" y="304"><tspan dy="10" x="569.5">&apos;16 W#44</tspan></text></g></g></g><g class="raphael-group-680-annotations" font-family="verdana,sans" text-anchor="middle" fill="#bfbfbf"><text font-weight="400" font-size="12" x="510" y="335"><tspan dy="4.5" x="510">© 2016-2017 Mindtree Ltd.</tspan></text><text font-weight="700" font-style="italic" font-size="13" x="40" y="335"><tspan dy="5" x="40">ATLAS</tspan></text></g><g class="raphael-group-594-dataset"><g class="raphael-group-602-line"><g class="raphael-group-662-line-connector"><g class="raphael-group-663-connector-shadow" fill="none" stroke="#404040" stroke-linecap="round" stroke-linejoin="round"><path d="M39 299l106-181 106 27 107-48 106 39 107 129" stroke-opacity=".05" stroke-width="6"/><path d="M39 299l106-181 106 27 107-48 106 39 107 129" stroke-opacity=".1" stroke-width="4"/><path d="M39 299l106-181 106 27 107-48 106 39 107 129" stroke-opacity=".15" stroke-width="2"/></g><path d="M38 298l106-181 106 27 107-48 106 39 107 129" fill="none" stroke="#0075c2" stroke-linecap="round" stroke-width="2" stroke-linejoin="round" class="raphael-group-665-line"/><path d="M35 298a3 3 0 0 0 6 0 3 3 0 0 0-6 0zm106-181a3 3 0 0 0 6 0 3 3 0 0 0-6 0zm106 27a3 3 0 0 0 6 0 3 3 0 0 0-6 0zm107-48a3 3 0 0 0 6 0 3 3 0 0 0-6 0zm106 39a3 3 0 0 0 6 0 3 3 0 0 0-6 0zm107 129a3 3 0 0 0 6 0 3 3 0 0 0-6 0z" class="raphael-group-666-anchors" fill="#fff" stroke="#0075c2" stroke-linecap="round"/></g></g></g><g class="raphael-group-597-datalabel" font-family="verdana,sans" font-size="10" font-weight="400"><g class="raphael-group-668-datalabel" fill="#555" text-anchor="middle"><text x="38" y="288"><tspan dy="4" x="38">2</tspan></text><text x="144" y="107"><tspan dy="4" x="144">169</tspan></text><text x="250" y="154"><tspan dy="4" x="250">144</tspan></text><text x="357" y="86"><tspan dy="4" x="357">189</tspan></text><text x="463" y="145"><tspan dy="4" x="463">153</tspan></text><text x="570" y="274"><tspan dy="4" x="570">33</tspan></text></g></g><g class="raphael-group-599-caption" font-family="verdana,sans" fill="#4d4d4d" font-weight="700" text-anchor="middle"><text font-size="14" x="304.75" y="16"><tspan dy="13.891" x="304.75">Weekly Ticket Closure Trends</tspan></text><text font-size="11" x="304.75" y="34"><tspan dy="11.109" x="304.75">October 2016</tspan></text></g><g class="raphael-group-603-tracker"><g class="raphael-group-667-line-hot" fill="none" cursor="pointer"><circle cx="38" cy="298" r="5.5"/><circle cx="144" cy="117" r="5.5"/><circle cx="250" cy="144" r="5.5"/><circle cx="357" cy="96" r="5.5"/><circle cx="463" cy="135" r="5.5"/><circle cx="570" cy="264" r="5.5"/></g></g></g></svg>