<svg xmlns="http://www.w3.org/2000/svg" height="350" width="600" style="-webkit-tap-highlight-color:rgba(0,0,0,0);user-select:none;vertical-align:middle;position:relative;background-color:#fff" overflow="hidden" cursor="default"><defs><clipPath id="a"><path d="M34 54h550v223H34z"/></clipPath><clipPath id="b"><path d="M34 55h550v221H34z"/></clipPath><clipPath id="c"><path d="M34 0h550v276H34z"/></clipPath></defs><g class="raphael-group-1275-parentgroup"><g class="raphael-group-1276-background"><rect x="1" y="1" width="598" height="348" fill-opacity=".5" fill="#fff" rx="0" ry="0"/><rect x=".5" y=".5" width="599" height="349" stroke="#767575" stroke-opacity=".5" fill="none" rx="0" ry="0"/></g><rect x="34" y="55" width="550" height="221" rx="0" ry="0" fill="none" class="raphael-group-1277-canvas"/><g class="raphael-group-1278-axisbottom"><g class="raphael-group-1305-dataset-Line-group"><g class="raphael-group-1339-dataset-axis-lines" clip-path="url('#a')" stroke="#717170" stroke-opacity=".4" fill="none" stroke-linecap="round" shape-rendering="crispedges"><path d="M34 276.5h550M34 55.5h550"/></g></g><g class="raphael-group-1308-dataset-Name-group"><text font-family="verdana,sans" font-size="11" font-weight="700" font-style="italic" fill="#4d4d4d" x="309" y="327.5" text-anchor="middle" class="raphael-group-1323-dataset-axis-name"><tspan dy="4.5" x="309">Breach Reason</tspan></text><text font-family="verdana,sans" font-size="11" font-weight="700" font-style="italic" fill="#4d4d4d" x="22.5" y="165.5" transform="rotate(-90 22.5 165.5)" text-anchor="middle" class="raphael-group-1344-dataset-axis-name"><tspan dy="4.5" x="22.5">Tickets</tspan></text></g><g class="raphael-group-1311-dataset-Label-group"><g class="raphael-group-1313-dataset-axis" font-family="verdana,sans" font-size="10" font-weight="400" fill="#555" text-anchor="middle" cursor="pointer"><text x="68.375" y="280"><tspan dy="10" x="68.375">External</tspan><tspan dy="12" x="68.375">dependency</tspan></text><text x="137.125" y="280"><tspan dy="10" x="137.125">Incorrect</tspan><tspan dy="12" x="137.125">resolution</tspan></text><text x="205.875" y="280"><tspan dy="10" x="205.875">Multiple</tspan><tspan dy="12" x="205.875">issues</tspan></text><text x="274.625" y="280"><tspan dy="10" x="274.625">New and</tspan><tspan dy="12" x="274.625">unfamiliar</tspan><tspan dy="12" x="274.625">issue</tspan></text><text x="343.375" y="280"><tspan dy="10" x="343.375">Not a</tspan><tspan dy="12" x="343.375">breach</tspan></text><text x="412.125" y="280"><tspan dy="10" x="412.125">Not</tspan><tspan dy="12" x="412.125">available</tspan></text><text x="480.875" y="280"><tspan dy="10" x="480.875">Premium</tspan><tspan dy="12" x="480.875">issues</tspan></text><text x="549.625" y="280"><tspan dy="10" x="549.625">Process</tspan><tspan dy="12" x="549.625">duration</tspan><tspan dy="12" x="549.625">beyond SLA</tspan></text></g></g></g><g class="raphael-group-1361-annotations" font-family="verdana,sans" text-anchor="middle" fill="#bfbfbf"><text font-weight="400" font-size="12" x="510" y="335"><tspan dy="4.5" x="510">© 2016-2017 Mindtree Ltd.</tspan></text><text font-weight="700" font-style="italic" font-size="13" x="40" y="335"><tspan dy="5" x="40">ATLAS</tspan></text></g><g class="raphael-group-1279-dataset"><g class="raphael-group-1285-column" clip-path="url('#b')"><g class="raphael-group-1349-columns" fill="#0075c2" stroke="#333" stroke-opacity=".1"><rect x="43.5" y="239.5" width="50" height="37" rx="0" ry="0"/><rect x="112.5" y="239.5" width="50" height="37" rx="0" ry="0"/><rect x="180.5" y="91.5" width="50" height="185" rx="0" ry="0"/><rect x="249.5" y="165.5" width="50" height="111" rx="0" ry="0"/><rect x="318.5" y="239.5" width="50" height="37" rx="0" ry="0"/><rect x="387.5" y="239.5" width="50" height="37" rx="0" ry="0"/><rect x="455.5" y="202.5" width="50" height="74" rx="0" ry="0"/><rect x="524.5" y="239.5" width="50" height="37" rx="0" ry="0"/></g></g></g><g class="raphael-group-1282-datalabel" font-family="verdana,sans" font-size="10" font-weight="400" clip-path="url('#c')"><g class="raphael-group-1528-datalabel" fill="#555" text-anchor="middle"><text x="68.5" y="227.5"><tspan dy="4" x="68.5">1</tspan></text><text x="137.5" y="227.5"><tspan dy="4" x="137.5">1</tspan></text><text x="205.5" y="79.5"><tspan dy="4" x="205.5">5</tspan></text><text x="274.5" y="153.5"><tspan dy="4" x="274.5">3</tspan></text><text x="343.5" y="227.5"><tspan dy="4" x="343.5">1</tspan></text><text x="412.5" y="227.5"><tspan dy="4" x="412.5">1</tspan></text><text x="480.5" y="190.5"><tspan dy="4" x="480.5">2</tspan></text><text x="549.5" y="227.5"><tspan dy="4" x="549.5">1</tspan></text></g></g><g class="raphael-group-1284-caption" font-family="verdana,sans" fill="#4d4d4d" font-weight="700" text-anchor="middle"><text font-size="14" x="309" y="16"><tspan dy="13.891" x="309">Incident Breach Analysis</tspan></text><text font-size="11" x="309" y="34"><tspan dy="11.109" x="309">October 2016</tspan></text></g><g class="raphael-group-1288-tracker"><g class="raphael-group-1350-col-hot" fill="none" cursor="pointer"><rect x="43.5" y="239.5" width="50" height="37" rx="0" ry="0"/><rect x="112.5" y="239.5" width="50" height="37" rx="0" ry="0"/><rect x="180.5" y="91.5" width="50" height="185" rx="0" ry="0"/><rect x="249.5" y="165.5" width="50" height="111" rx="0" ry="0"/><rect x="318.5" y="239.5" width="50" height="37" rx="0" ry="0"/><rect x="387.5" y="239.5" width="50" height="37" rx="0" ry="0"/><rect x="455.5" y="202.5" width="50" height="74" rx="0" ry="0"/><rect x="524.5" y="239.5" width="50" height="37" rx="0" ry="0"/></g></g></g></svg>