<svg xmlns="http://www.w3.org/2000/svg" height="350" width="600" style="-webkit-tap-highlight-color:rgba(0,0,0,0);user-select:none;vertical-align:middle;position:relative;background-color:#fff" overflow="hidden" cursor="default"><defs><clipPath id="a"><path d="M34 54h541.5v247H34z"/></clipPath></defs><g class="raphael-group-1181-parentgroup"><g class="raphael-group-1182-background"><rect x="1" y="1" width="598" height="348" fill-opacity=".5" fill="#fff" rx="0" ry="0"/><rect x=".5" y=".5" width="599" height="349" stroke="#767575" stroke-opacity=".5" fill="none" rx="0" ry="0"/></g><rect x="34" y="55" width="541.5" height="245" rx="0" ry="0" fill="none" class="raphael-group-1183-canvas"/><g class="raphael-group-1184-axisbottom"><g class="raphael-group-1211-dataset-Line-group"><g class="raphael-group-1243-dataset-axis-lines" clip-path="url('#a')" stroke="#717170" stroke-opacity=".4" fill="none" stroke-linecap="round" shape-rendering="crispedges"><path d="M34 300.5h541.5M34 54.5h541.5"/></g></g><g class="raphael-group-1214-dataset-Name-group"><text font-family="verdana,sans" font-size="11" font-weight="700" font-style="italic" fill="#4d4d4d" x="304.75" y="327.5" text-anchor="middle" class="raphael-group-1229-dataset-axis-name"><tspan dy="4.5" x="304.75">Weeks</tspan></text><text font-family="verdana,sans" font-size="11" font-weight="700" font-style="italic" fill="#4d4d4d" x="22.5" y="177.5" transform="rotate(-90 22.5 177.5)" text-anchor="middle" class="raphael-group-1248-dataset-axis-name"><tspan dy="4.5" x="22.5">MTTR (Hours)</tspan></text></g><g class="raphael-group-1217-dataset-Label-group"><g class="raphael-group-1219-dataset-axis" font-family="verdana,sans" font-size="10" font-weight="400" fill="#555" text-anchor="middle" cursor="pointer"><text x="42" y="304"><tspan dy="10" x="42">&apos;16 W#39</tspan></text><text x="145.9" y="304"><tspan dy="10" x="145.9">&apos;16 W#40</tspan></text><text x="249.8" y="304"><tspan dy="10" x="249.8">&apos;16 W#41</tspan></text><text x="353.7" y="304"><tspan dy="10" x="353.7">&apos;16 W#42</tspan></text><text x="457.6" y="304"><tspan dy="10" x="457.6">&apos;16 W#43</tspan></text><text x="561.5" y="304"><tspan dy="10" x="561.5">&apos;16 W#44</tspan></text></g></g></g><g class="raphael-group-1271-annotations" font-family="verdana,sans" text-anchor="middle" fill="#bfbfbf"><text font-weight="400" font-size="12" x="510" y="335"><tspan dy="4.5" x="510">© 2016-2017 Mindtree Ltd.</tspan></text><text font-weight="700" font-style="italic" font-size="13" x="40" y="335"><tspan dy="5" x="40">ATLAS</tspan></text></g><g class="raphael-group-1185-dataset"><g class="raphael-group-1193-line"><g class="raphael-group-1253-line-connector"><g class="raphael-group-1254-connector-shadow" fill="none" stroke="#404040" stroke-linecap="round" stroke-linejoin="round"><path d="M43 262l104-150 104-9 104 44 104-4 104 28" stroke-opacity=".05" stroke-width="6"/><path d="M43 262l104-150 104-9 104 44 104-4 104 28" stroke-opacity=".1" stroke-width="4"/><path d="M43 262l104-150 104-9 104 44 104-4 104 28" stroke-opacity=".15" stroke-width="2"/></g><path d="M42 261l104-150 104-9 104 44 104-4 104 28" fill="none" stroke="#0075c2" stroke-linecap="round" stroke-width="2" stroke-linejoin="round" class="raphael-group-1256-line"/><path d="M39 261a3 3 0 0 0 6 0 3 3 0 0 0-6 0zm104-150a3 3 0 0 0 6 0 3 3 0 0 0-6 0zm104-9a3 3 0 0 0 6 0 3 3 0 0 0-6 0zm104 44a3 3 0 0 0 6 0 3 3 0 0 0-6 0zm104-4a3 3 0 0 0 6 0 3 3 0 0 0-6 0zm104 28a3 3 0 0 0 6 0 3 3 0 0 0-6 0z" class="raphael-group-1257-anchors" fill="#fff" stroke="#0075c2" stroke-linecap="round"/></g></g></g><g class="raphael-group-1188-datalabel" font-family="verdana,sans" font-size="10" font-weight="400"><g class="raphael-group-1259-datalabel" fill="#555" text-anchor="middle"><text x="42" y="251"><tspan dy="4" x="42">7.9</tspan></text><text x="146" y="101"><tspan dy="4" x="146">38.47</tspan></text><text x="250" y="92"><tspan dy="4" x="250">40.31</tspan></text><text x="354" y="156"><tspan dy="4" x="354">31.47</tspan></text><text x="458" y="132"><tspan dy="4" x="458">32.22</tspan></text><text x="562" y="180"><tspan dy="4" x="562">26.58</tspan></text></g></g><g class="raphael-group-1190-caption" font-family="verdana,sans" fill="#4d4d4d" font-weight="700" text-anchor="middle"><text font-size="14" x="304.75" y="16"><tspan dy="13.891" x="304.75">MTTR Trends</tspan></text><text font-size="11" x="304.75" y="34"><tspan dy="11.109" x="304.75">October 2016</tspan></text></g><g class="raphael-group-1194-tracker"><g class="raphael-group-1258-line-hot" fill="none" cursor="pointer"><circle cx="42" cy="261" r="5.5"/><circle cx="146" cy="111" r="5.5"/><circle cx="250" cy="102" r="5.5"/><circle cx="354" cy="146" r="5.5"/><circle cx="458" cy="142" r="5.5"/><circle cx="562" cy="170" r="5.5"/></g></g></g></svg>