<svg xmlns="http://www.w3.org/2000/svg" height="350" width="600" style="-webkit-tap-highlight-color:rgba(0,0,0,0);user-select:none;vertical-align:middle;position:relative;background-color:#fff" overflow="hidden" cursor="default"><defs><clipPath id="a"><path d="M34 54h550v247H34z"/></clipPath><clipPath id="b"><path d="M34 55h550v245H34z"/></clipPath><clipPath id="c"><path d="M34 0h550v300H34z"/></clipPath></defs><g class="raphael-group-837-parentgroup"><g class="raphael-group-838-background"><rect x="1" y="1" width="598" height="348" fill-opacity=".5" fill="#fff" rx="0" ry="0"/><rect x=".5" y=".5" width="599" height="349" stroke="#767575" stroke-opacity=".5" fill="none" rx="0" ry="0"/></g><rect x="34" y="55" width="550" height="245" rx="0" ry="0" fill="none" class="raphael-group-839-canvas"/><g class="raphael-group-840-axisbottom"><g class="raphael-group-867-dataset-Line-group"><g class="raphael-group-898-dataset-axis-lines" clip-path="url('#a')" stroke="#717170" stroke-opacity=".4" fill="none" stroke-linecap="round" shape-rendering="crispedges"><path d="M34 300.5h550M34 54.5h550"/></g></g><g class="raphael-group-870-dataset-Name-group"><text font-family="verdana,sans" font-size="11" font-weight="700" font-style="italic" fill="#4d4d4d" x="309" y="327.5" text-anchor="middle" class="raphael-group-885-dataset-axis-name"><tspan dy="4.5" x="309">Applications</tspan></text><text font-family="verdana,sans" font-size="11" font-weight="700" font-style="italic" fill="#4d4d4d" x="22.5" y="177.5" transform="rotate(-90 22.5 177.5)" text-anchor="middle" class="raphael-group-903-dataset-axis-name"><tspan dy="4.5" x="22.5">Tickets</tspan></text></g><g class="raphael-group-873-dataset-Label-group"><g class="raphael-group-875-dataset-axis" font-family="verdana,sans" font-size="10" font-weight="400" fill="#555" text-anchor="middle"><text x="89" y="304"><tspan dy="10" x="89">CCUW-FL IT</tspan></text><text x="199" y="304"><tspan dy="10" x="199">eSurplus</tspan></text><text x="309" y="304"><tspan dy="10" x="309">DMS</tspan></text><text x="419" y="304"><tspan dy="10" x="419">CCUW-WS IT</tspan></text><text x="529" y="304"><tspan dy="10" x="529">EXS</tspan></text></g></g></g><g class="raphael-group-917-annotations" font-family="verdana,sans" text-anchor="middle" fill="#bfbfbf"><text font-weight="400" font-size="12" x="510" y="335"><tspan dy="4.5" x="510">© 2016-2017 Mindtree Ltd.</tspan></text><text font-weight="700" font-style="italic" font-size="13" x="40" y="335"><tspan dy="5" x="40">ATLAS</tspan></text></g><g class="raphael-group-841-dataset"><g class="raphael-group-847-column" clip-path="url('#b')"><g class="raphael-group-908-columns" fill="#0075c2" stroke="#333" stroke-opacity=".1"><rect x="64.5" y="104.5" width="50" height="196" rx="0" ry="0"/><rect x="174.5" y="254.5" width="50" height="46" rx="0" ry="0"/><rect x="284.5" y="262.5" width="50" height="38" rx="0" ry="0"/><rect x="394.5" y="267.5" width="50" height="33" rx="0" ry="0"/><rect x="504.5" y="277.5" width="50" height="23" rx="0" ry="0"/></g></g></g><g class="raphael-group-844-datalabel" font-family="verdana,sans" font-size="10" font-weight="400" clip-path="url('#c')"><g class="raphael-group-1499-datalabel" fill="#555" text-anchor="middle"><text x="89.5" y="92.5"><tspan dy="4" x="89.5">319</tspan></text><text x="199.5" y="242.5"><tspan dy="4" x="199.5">74</tspan></text><text x="309.5" y="250.5"><tspan dy="4" x="309.5">61</tspan></text><text x="419.5" y="255.5"><tspan dy="4" x="419.5">53</tspan></text><text x="529.5" y="265.5"><tspan dy="4" x="529.5">36</tspan></text></g></g><g class="raphael-group-846-caption" font-family="verdana,sans" fill="#4d4d4d" font-weight="700" text-anchor="middle"><text font-size="14" x="309" y="16"><tspan dy="13.891" x="309">Incident Trends by Applications</tspan></text><text font-size="11" x="309" y="34"><tspan dy="11.109" x="309">October 2016</tspan></text></g><g class="raphael-group-850-tracker"><g class="raphael-group-909-col-hot" fill="none"><rect x="64.5" y="104.5" width="50" height="196" rx="0" ry="0"/><rect x="174.5" y="254.5" width="50" height="46" rx="0" ry="0"/><rect x="284.5" y="262.5" width="50" height="38" rx="0" ry="0"/><rect x="394.5" y="267.5" width="50" height="33" rx="0" ry="0"/><rect x="504.5" y="277.5" width="50" height="23" rx="0" ry="0"/></g></g></g></svg>