<svg xmlns="http://www.w3.org/2000/svg" height="350" width="600" style="-webkit-tap-highlight-color:rgba(0,0,0,0);user-select:none;vertical-align:middle;position:relative;background-color:#fff" overflow="hidden" cursor="default"><defs><clipPath id="a"><path d="M33 43h551v242.5H33z"/></clipPath><clipPath id="b"><path d="M33 44h551v240.5H33z"/></clipPath><clipPath id="c"><path d="M33 0h551v284.5H33z"/></clipPath></defs><g class="raphael-group-477-parentgroup"><g class="raphael-group-478-background"><rect x="1" y="1" width="598" height="348" fill-opacity=".5" fill="#fff" rx="0" ry="0"/><rect x=".5" y=".5" width="599" height="349" stroke="#767575" stroke-opacity=".5" fill="none" rx="0" ry="0"/></g><rect x="33" y="44" width="551" height="240.5" rx="0" ry="0" fill="none" class="raphael-group-479-canvas"/><g class="raphael-group-480-axisbottom"><g class="raphael-group-517-dataset-Line-group"><g class="raphael-group-551-dataset-axis-lines" clip-path="url('#a')" stroke="#717170" stroke-opacity=".4" fill="none" stroke-linecap="round" shape-rendering="crispedges"><path d="M33 284.5h551M33 44.5h551"/></g></g><g class="raphael-group-520-dataset-Name-group"><text font-family="verdana,sans" font-size="10" font-weight="700" fill="#555" x="22" y="164.25" transform="rotate(-90 22 164.25)" text-anchor="middle" class="raphael-group-556-dataset-axis-name"><tspan dy="4" x="22">Tickets</tspan></text></g><g class="raphael-group-523-dataset-Label-group"><g class="raphael-group-525-dataset-axis" font-family="verdana,sans" font-size="10" font-weight="400" fill="#555" text-anchor="middle"><text x="63.611" y="288.5"><tspan dy="10" x="63.611">Sep, 2015</tspan></text><text x="124.833" y="288.5"><tspan dy="10" x="124.833">Oct, 2015</tspan></text><text x="186.056" y="288.5"><tspan dy="10" x="186.056">Nov, 2015</tspan></text><text x="247.278" y="288.5"><tspan dy="10" x="247.278">Jul, 2016</tspan></text><text x="308.5" y="288.5"><tspan dy="10" x="308.5">Aug, 2016</tspan></text><text x="369.722" y="288.5"><tspan dy="10" x="369.722">Sep, 2016</tspan></text><text x="430.944" y="288.5"><tspan dy="10" x="430.944">Oct, 2016</tspan></text><text x="492.167" y="288.5"><tspan dy="10" x="492.167">Nov, 2016</tspan></text><text x="553.389" y="288.5"><tspan dy="10" x="553.389">Dec, 2016</tspan></text></g></g></g><g class="raphael-group-586-annotations" font-family="verdana,sans" text-anchor="middle" fill="#bfbfbf"><text font-weight="400" font-size="12" x="510" y="335"><tspan dy="4.5" x="510">© 2016-2017 Mindtree Ltd.</tspan></text><text font-weight="700" font-style="italic" font-size="13" x="40" y="335"><tspan dy="5" x="40">ATLAS</tspan></text></g><g class="raphael-group-481-dataset"><g class="raphael-group-487-column" clip-path="url('#b')"><g class="raphael-group-561-columns" fill="#69c" stroke="#333" stroke-opacity=".1"><rect x="39.5" y="229.5" width="49" height="55" rx="0" ry="0"/><rect x="100.5" y="164.5" width="49" height="120" rx="0" ry="0"/><rect x="161.5" y="273.5" width="49" height="11" rx="0" ry="0"/><rect x="222.5" y="284.5" width="49" height="1" rx="0" ry="0"/><rect x="284.5" y="283.5" width="48" height="1" rx="0" ry="0"/><rect x="345.5" y="250.5" width="49" height="34" rx="0" ry="0"/><rect x="406.5" y="81.5" width="49" height="203" rx="0" ry="0"/><rect x="467.5" y="279.5" width="49" height="5" rx="0" ry="0"/><rect x="528.5" y="164.5" width="49" height="120" rx="0" ry="0"/></g><g class="raphael-group-573-columns" fill="#696" stroke="#333" stroke-opacity=".1"><rect x="39.5" y="229.5" width="49" height="1" rx="0" ry="0"/><rect x="100.5" y="164.5" width="49" height="1" rx="0" ry="0"/><rect x="161.5" y="273.5" width="49" height="1" rx="0" ry="0"/><rect x="222.5" y="284.5" width="49" height="1" rx="0" ry="0"/><rect x="284.5" y="283.5" width="48" height="1" rx="0" ry="0"/><rect x="345.5" y="248.5" width="49" height="2" rx="0" ry="0"/><rect x="406.5" y="50.5" width="49" height="31" rx="0" ry="0"/><rect x="467.5" y="278.5" width="49" height="1" rx="0" ry="0"/><rect x="528.5" y="164.5" width="49" height="1" rx="0" ry="0"/></g></g></g><g class="raphael-group-484-datalabel" font-family="verdana,sans" font-size="10" font-weight="400" clip-path="url('#c')"><g class="raphael-group-1470-datalabel" fill="#333" text-anchor="middle"><text x="64" y="257"><tspan dy="4" x="64">161</tspan></text><text x="125" y="224.5"><tspan dy="4" x="125">348</tspan></text><text x="186" y="276.5"><tspan dy="4" x="186">32</tspan></text><text x="247" y="276.5"><tspan dy="4" x="247">0</tspan></text><text x="308.5" y="276.5"><tspan dy="4" x="308.5">2</tspan></text><text x="370" y="267.5"><tspan dy="4" x="370">98</tspan></text><text x="431" y="183"><tspan dy="4" x="431">590</tspan></text><text x="492" y="276.5"><tspan dy="4" x="492">15</tspan></text><text x="553" y="224.5"><tspan dy="4" x="553">348</tspan></text></g><g class="raphael-group-1480-datalabel" fill="#333" text-anchor="middle"><text x="64" y="229.5"><tspan dy="4" x="64">0</tspan></text><text x="125" y="164.5"><tspan dy="4" x="125">0</tspan></text><text x="186" y="273.5"><tspan dy="4" x="186">0</tspan></text><text x="247" y="276.5"><tspan dy="4" x="247">1</tspan></text><text x="308.5" y="276.5"><tspan dy="4" x="308.5">0</tspan></text><text x="370" y="249.5"><tspan dy="4" x="370">7</tspan></text><text x="431" y="66"><tspan dy="4" x="431">92</tspan></text><text x="492" y="276.5"><tspan dy="4" x="492">3</tspan></text><text x="553" y="164.5"><tspan dy="4" x="553">0</tspan></text></g></g><g class="raphael-group-485-legend" transform="translate(246.5 310.5)"><rect width="124" height="25" rx="0" ry="0" fill="none" stroke="#404040" stroke-opacity=".05" stroke-width="5" transform="translate(1 1)" stroke-linecap="round" stroke-linejoin="round"/><rect width="124" height="25" rx="0" ry="0" fill="none" stroke="#404040" stroke-opacity=".1" stroke-width="3" transform="translate(1 1)" stroke-linecap="round" stroke-linejoin="round"/><rect width="124" height="25" rx="0" ry="0" fill="none" stroke="#404040" stroke-opacity=".15" transform="translate(1 1)" stroke-linecap="round" stroke-linejoin="round"/><rect width="124" height="25" rx="0" ry="0" stroke="#666" stroke-opacity=".4" fill="#fff"/><g class="raphael-group-509-item" font-family="verdana,sans" font-size="10" font-weight="400" cursor="pointer"><text fill="#555" x="23" y="6.5"><tspan dy="10" x="23">Closed</tspan></text><path d="M7 18v-7.7h2.75V18zm4.125 0V7h2.75v11zm4.125 0v-4.4H18V18z" fill="#69c" stroke="#a3c2e0" stroke-linecap="round" stroke-width=".5"/><rect x="4" y="4" width="55" height="17" rx="0" ry="0" fill="none"/><text fill="#555" x="88.85" y="6.5"><tspan dy="10" x="88.85">Open</tspan></text><path d="M72.85 18v-7.7h2.75V18zm4.125 0V7h2.75v11zm4.125 0v-4.4h2.75V18z" fill="#696" stroke="#a3c2a3" stroke-linecap="round" stroke-width=".5"/><rect x="69.85" y="4" width="48" height="17" rx="0" ry="0" fill="none"/></g></g><text font-family="verdana,sans" fill="#4d4d4d" font-size="14" font-weight="700" x="308.5" y="16" text-anchor="middle" class="raphael-group-486-caption"><tspan dy="13.891" x="308.5">Incidents Distribution by Status</tspan></text><g class="raphael-group-490-tracker"><g class="raphael-group-562-col-hot" fill="none"><rect x="39.5" y="229.5" width="49" height="55" rx="0" ry="0"/><rect x="100.5" y="164.5" width="49" height="120" rx="0" ry="0"/><rect x="161.5" y="273.5" width="49" height="11" rx="0" ry="0"/><rect x="222.5" y="282" width="49" height="5" rx="0" ry="0"/><rect x="284.5" y="281.5" width="48" height="5" rx="0" ry="0"/><rect x="345.5" y="250.5" width="49" height="34" rx="0" ry="0"/><rect x="406.5" y="81.5" width="49" height="203" rx="0" ry="0"/><rect x="467.5" y="279.5" width="49" height="5" rx="0" ry="0"/><rect x="528.5" y="164.5" width="49" height="120" rx="0" ry="0"/></g><g class="raphael-group-574-col-hot" fill="none"><rect x="39.5" y="227" width="49" height="5" rx="0" ry="0"/><rect x="100.5" y="162" width="49" height="5" rx="0" ry="0"/><rect x="161.5" y="271" width="49" height="5" rx="0" ry="0"/><rect x="222.5" y="282.5" width="49" height="5" rx="0" ry="0"/><rect x="284.5" y="281" width="48" height="5" rx="0" ry="0"/><rect x="345.5" y="247" width="49" height="5" rx="0" ry="0"/><rect x="406.5" y="50.5" width="49" height="31" rx="0" ry="0"/><rect x="467.5" y="276.5" width="49" height="5" rx="0" ry="0"/><rect x="528.5" y="162" width="49" height="5" rx="0" ry="0"/></g></g></g></svg>